<svg id="Groupe_6895" data-name="Groupe 6895" xmlns="http://www.w3.org/2000/svg" xmlns:xlink="http://www.w3.org/1999/xlink" width="83.288" height="74.485" viewBox="0 0 83.288 74.485">
  <defs>
    <clipPath id="clip-path">
      <rect id="Rectangle_21" data-name="Rectangle 21" width="83.288" height="74.485" fill="none"/>
    </clipPath>
  </defs>
  <g id="Groupe_6894" data-name="Groupe 6894" clip-path="url(#clip-path)">
    <path id="Tracé_6696" data-name="Tracé 6696" d="M5.413,125.792H8.149c1.824,0,2.938.936,2.938,2.476s-1.113,2.464-2.938,2.464H7.1v3.352H5.413ZM7.1,127.225V129.3H8.22a1.041,1.041,0,1,0,0-2.073Z" transform="translate(-4.702 -109.277)" fill="#161615"/>
    <path id="Tracé_6697" data-name="Tracé 6697" d="M59.189,125.792h2.535c1.824,0,2.949.936,2.949,2.476a2.256,2.256,0,0,1-1.327,2.144l2.606,3.672H63.939l-2.2-3.352h-.865v3.352H59.189Zm1.682,1.433V129.3h.948a1.04,1.04,0,1,0,0-2.073Z" transform="translate(-51.418 -109.277)" fill="#161615"/>
    <path id="Tracé_6698" data-name="Tracé 6698" d="M118.649,110.508h4.833v1.433h-3.151v1.919h2.677v1.433h-2.677v2.073h3.151V118.8h-4.833Zm1.635-.711,1.339-1.6h1.729l-1.54,1.6Z" transform="translate(-103.072 -93.993)" fill="#161615"/>
    <path id="Tracé_6699" data-name="Tracé 6699" d="M170.349,125.791h4.833v1.433h-3.151v1.919h2.677v1.433h-2.677v3.506h-1.682Z" transform="translate(-147.984 -109.277)" fill="#161615"/>
    <path id="Tracé_6700" data-name="Tracé 6700" d="M218.441,125.791h4.833v1.433h-3.151v1.919H222.8v1.433h-2.677v2.073h3.151v1.433h-4.833Z" transform="translate(-189.762 -109.277)" fill="#161615"/>
    <path id="Tracé_6701" data-name="Tracé 6701" d="M265,125.791h6.8v1.528H269.24v6.764h-1.682V127.32H265Z" transform="translate(-230.208 -109.277)" fill="#161615"/>
    <path id="Tracé_6702" data-name="Tracé 6702" d="M5.413,216.862H8.67a4.154,4.154,0,1,1,0,8.292H5.413ZM7.1,218.39v5.236h1.6a2.618,2.618,0,1,0,0-5.236Z" transform="translate(-4.702 -188.391)" fill="#161615"/>
    <path id="Tracé_6703" data-name="Tracé 6703" d="M76.152,216.862h4.833V218.3H77.834v1.919h2.677v1.433H77.834v2.073h3.151v1.433H76.152Z" transform="translate(-66.154 -188.391)" fill="#161615"/>
    <path id="Tracé_6704" data-name="Tracé 6704" d="M151.311,216.862h1.682v6.764h3.151v1.528h-4.833Z" transform="translate(-131.446 -188.391)" fill="#161615"/>
    <path id="Tracé_6705" data-name="Tracé 6705" d="M197.309,216.863h2.2l3.139,8.292h-1.789L200.069,223h-3.317l-.794,2.156H194.17Zm2.239,4.7-1.137-3.115-1.137,3.115Z" transform="translate(-168.678 -188.392)" fill="#161615"/>
    <path id="Tracé_6706" data-name="Tracé 6706" d="M291.976,216.863h2.535c1.824,0,2.949.936,2.949,2.476a2.256,2.256,0,0,1-1.327,2.144l2.606,3.672h-2.014l-2.2-3.352h-.865v3.352h-1.682Zm1.682,1.433v2.073h.948a1.04,1.04,0,1,0,0-2.073Z" transform="translate(-253.643 -188.392)" fill="#161615"/>
    <path id="Tracé_6707" data-name="Tracé 6707" d="M351.436,201.579h4.833v1.433h-3.151v1.919H355.8v1.433h-2.677v2.073h3.151v1.433h-4.833Zm1.635-.711,1.339-1.6h1.729l-1.54,1.6Z" transform="translate(-305.297 -173.108)" fill="#161615"/>
    <path id="Tracé_6708" data-name="Tracé 6708" d="M402.737,221.526v-1.4h-2.108V218.6h3.79v3.53a4.423,4.423,0,0,1-3.613,1.694,4.37,4.37,0,0,1-4.525-4.383,4.428,4.428,0,0,1,7.9-2.7l-1.327,1.03a2.593,2.593,0,0,0-2.168-1.137,2.67,2.67,0,0,0-2.677,2.807,2.731,2.731,0,0,0,2.8,2.807,2.769,2.769,0,0,0,1.931-.723" transform="translate(-344.254 -186.824)" fill="#161615"/>
    <rect id="Rectangle_20" data-name="Rectangle 20" width="1.682" height="8.292" transform="translate(62.036 28.471)" fill="#161615"/>
    <path id="Tracé_6709" data-name="Tracé 6709" d="M506.408,219.44a4.4,4.4,0,1,1-4.395-4.383,4.309,4.309,0,0,1,4.395,4.383m-1.729,0a2.674,2.674,0,1,0-2.665,2.807,2.667,2.667,0,0,0,2.665-2.807" transform="translate(-432.278 -186.823)" fill="#161615"/>
    <path id="Tracé_6710" data-name="Tracé 6710" d="M576.917,216.862h2.156l3.708,5.935v-5.935h1.682v8.292h-2.156L578.6,219.2v5.958h-1.682Z" transform="translate(-501.175 -188.391)" fill="#161615"/>
    <path id="Tracé_6711" data-name="Tracé 6711" d="M6.456,312.6v-1.4H4.347V309.67H8.138v3.53a4.423,4.423,0,0,1-3.613,1.694A4.37,4.37,0,0,1,0,310.511a4.312,4.312,0,0,1,4.406-4.383A4.3,4.3,0,0,1,7.9,307.81l-1.327,1.03A2.593,2.593,0,0,0,4.406,307.7a2.67,2.67,0,0,0-2.677,2.808,2.731,2.731,0,0,0,2.8,2.807,2.769,2.769,0,0,0,1.931-.723" transform="translate(0 -265.937)" fill="#161615"/>
    <path id="Tracé_6712" data-name="Tracé 6712" d="M76.243,307.933h2.535c1.824,0,2.949.936,2.949,2.476a2.256,2.256,0,0,1-1.327,2.144l2.606,3.672H80.993l-2.2-3.352h-.865v3.352H76.243Zm1.682,1.433v2.073h.948a1.04,1.04,0,1,0,0-2.073Z" transform="translate(-66.233 -267.505)" fill="#161615"/>
    <path id="Tracé_6713" data-name="Tracé 6713" d="M133.609,307.933h2.2l3.139,8.292h-1.789l-.794-2.156h-3.317l-.794,2.156H130.47Zm2.239,4.7-1.137-3.115-1.137,3.115Z" transform="translate(-113.341 -267.505)" fill="#161615"/>
    <path id="Tracé_6714" data-name="Tracé 6714" d="M204.816,307.933h2.156l3.708,5.935v-5.935h1.682v8.292h-2.156l-3.708-5.958v5.958h-1.682Z" transform="translate(-177.927 -267.505)" fill="#161615"/>
    <path id="Tracé_6715" data-name="Tracé 6715" d="M279.976,307.933h3.258a4.154,4.154,0,1,1,0,8.292h-3.258Zm1.682,1.528V314.7h1.6a2.618,2.618,0,1,0,0-5.236Z" transform="translate(-243.219 -267.505)" fill="#161615"/>
    <path id="Tracé_6716" data-name="Tracé 6716" d="M374.174,307.933h4.833v1.433h-3.151v1.919h2.677v1.433h-2.677v2.073h3.151v1.433h-4.833Z" transform="translate(-325.05 -267.505)" fill="#161615"/>
    <path id="Tracé_6717" data-name="Tracé 6717" d="M421.411,312.383a2.391,2.391,0,0,0,1.836,1.019.934.934,0,0,0,1.066-.959c0-1.481-3.79-1.149-3.79-3.909a2.479,2.479,0,0,1,2.653-2.4,3.663,3.663,0,0,1,2.9,1.4l-1.232,1.1a2.191,2.191,0,0,0-1.658-1.03.881.881,0,0,0-.959.865c0,1.481,3.791,1.137,3.791,3.945a2.539,2.539,0,0,1-2.748,2.488,3.739,3.739,0,0,1-3.08-1.386Z" transform="translate(-365.025 -265.937)" fill="#161615"/>
    <path id="Tracé_6718" data-name="Tracé 6718" d="M471.081,307.933h6.8v1.528h-2.559v6.764h-1.682v-6.764h-2.559Z" transform="translate(-409.234 -267.505)" fill="#161615"/>
    <path id="Tracé_6719" data-name="Tracé 6719" d="M32.362,531.582c.225,0,.419.17.316.6l-1.046.243c.182-.486.486-.845.73-.845m.578,1.684h-.207a1.256,1.256,0,0,1-.821.553c-.286,0-.432-.17-.432-.553a2.294,2.294,0,0,1,.049-.462l1.684-.553c.328-.778-.067-1.119-.529-1.119-.8,0-1.7,1.331-1.7,2.5,0,.523.249.809.638.809.456,0,.93-.444,1.319-1.173m-.334-2.444,1.186-1.106v-.128h-.638l-.729,1.234Zm-3.635.778h.559l-.888,2.426a.282.282,0,0,0,.243.413,2.064,2.064,0,0,0,1.6-1.179h-.158a2.212,2.212,0,0,1-1.027.62l.815-2.28h.833l.1-.347h-.809l.31-.875h-.322l-.578.875-.687.1Zm-.754-.116a.249.249,0,0,0-.2-.353,1.566,1.566,0,0,0-1.295,1.052h.158a1.239,1.239,0,0,1,.675-.517l-.93,2.42a.242.242,0,0,0,.2.353,1.533,1.533,0,0,0,1.234-1.052H27.9a1.239,1.239,0,0,1-.675.517Zm.17-1.216a.4.4,0,1,0-.4-.4.4.4,0,0,0,.4.4m-5.356,3.721c-.122.274.006.45.274.45.164,0,.237-.043.3-.219l.644-1.708a2.313,2.313,0,0,1,1.155-.754c.176,0,.152.146.036.365l-.991,1.9a.279.279,0,0,0,.243.413,1.566,1.566,0,0,0,1.3-1.052h-.158a1.239,1.239,0,0,1-.675.517l.851-1.721a1.381,1.381,0,0,0,.164-.59.419.419,0,0,0-.45-.462c-.419,0-.845.474-1.35,1.058v-.45c0-.322-.1-.608-.4-.608-.182,0-.359.158-.523.383v.061c.316-.018.456.456.231.954Zm-.012-2.116c.116-.4.055-.742-.249-.742-.359,0-.45.274-.815,1.058v-.45c0-.322-.1-.608-.4-.608-.34,0-.65.529-.888,1.052h.158c.164-.237.316-.377.438-.377.146,0,.225.225,0,.724l-.657,1.459c-.122.274.006.45.273.45.164,0,.237-.043.3-.219l.644-1.708c.182-.225.347-.419.553-.638Zm-3.733-.292c.225,0,.419.17.316.6l-1.046.243c.182-.486.486-.845.73-.845m.578,1.684h-.207a1.256,1.256,0,0,1-.821.553c-.286,0-.432-.17-.432-.553a2.284,2.284,0,0,1,.049-.462l1.684-.553c.328-.778-.067-1.119-.529-1.119-.8,0-1.7,1.331-1.7,2.5,0,.523.249.809.638.809.456,0,.93-.444,1.319-1.173m-3.97-1.666h.559l-.888,2.426a.282.282,0,0,0,.243.413,2.064,2.064,0,0,0,1.6-1.179h-.158a2.21,2.21,0,0,1-1.027.62l.815-2.28h.833l.1-.347H17.17l.31-.875h-.322l-.578.875-.687.1Zm-3.07,1.891c0-.748.833-1.763,1.3-1.763a1.05,1.05,0,0,1,.286.036l-.486,1.295c-.28.341-.711.754-.912.754-.115,0-.188-.1-.188-.322m2.559-2.5-.255-.018-.286.28h-.061a2.931,2.931,0,0,0-2.584,2.687.46.46,0,0,0,.5.5c.359,0,.711-.511,1.106-1.058l-.018.195c-.049.559.122.863.413.863.34,0,.651-.529.888-1.052h-.158c-.164.237-.316.377-.438.377s-.219-.231,0-.723Zm-2.954.882c.115-.4.055-.742-.249-.742-.359,0-.45.274-.815,1.058v-.45c0-.322-.1-.608-.4-.608-.34,0-.651.529-.888,1.052h.158c.164-.237.316-.377.438-.377.146,0,.225.225,0,.724l-.657,1.459c-.122.274.006.45.274.45.164,0,.237-.043.3-.219l.644-1.708c.182-.225.346-.419.553-.638Zm-4.657,2.444.061-.189c-.809-.152-.912-.152-.59-1.033l.328-.906h.894c.4,0,.407.164.346.6h.231l.535-1.465H9.346c-.2.346-.359.6-.8.6H7.668l.468-1.283c.146-.407.231-.492.778-.492H9.3c.565,0,.632.152.632.723h.225l.188-1H6.993l-.061.188c.65.134.711.195.407,1.034L6.61,533.1c-.3.833-.432.9-1.179,1.033l-.055.189Z" transform="translate(-4.67 -459.954)" fill="#161615"/>
    <path id="Tracé_6720" data-name="Tracé 6720" d="M24.222,468.227c.225,0,.419.17.316.6l-1.046.243c.182-.486.486-.845.73-.845m.578,1.684h-.207a1.255,1.255,0,0,1-.821.553c-.286,0-.432-.17-.432-.553a2.293,2.293,0,0,1,.049-.462l1.684-.553c.328-.778-.067-1.119-.529-1.119-.8,0-1.7,1.331-1.7,2.5,0,.523.249.809.638.809.456,0,.93-.444,1.319-1.173m-.334-2.444,1.186-1.106v-.128h-.638l-.729,1.234Zm-3.635.778h.559L20.5,470.67a.282.282,0,0,0,.243.413,2.064,2.064,0,0,0,1.6-1.179h-.158a2.211,2.211,0,0,1-1.027.62l.815-2.28h.833l.1-.347h-.809l.31-.875h-.322l-.578.875-.687.1Zm-.754-.116a.249.249,0,0,0-.2-.353,1.566,1.566,0,0,0-1.295,1.052h.158a1.239,1.239,0,0,1,.675-.517l-.93,2.42a.242.242,0,0,0,.2.353,1.533,1.533,0,0,0,1.234-1.052H19.76a1.238,1.238,0,0,1-.675.517Zm.17-1.216a.4.4,0,1,0-.4-.4.4.4,0,0,0,.4.4m-3.234,3.635,1.7-4.444-.055-.067-1.064.122v.128l.207.158c.189.146.128.286-.043.736l-1.325,3.49a.279.279,0,0,0,.243.413,1.493,1.493,0,0,0,1.234-1.052h-.158a1.373,1.373,0,0,1-.736.517m-3.222-.413c0-.748.833-1.763,1.3-1.763a1.052,1.052,0,0,1,.286.036l-.486,1.3c-.28.34-.711.754-.912.754-.116,0-.188-.1-.188-.322m2.559-2.5-.255-.018-.286.28h-.061a2.931,2.931,0,0,0-2.584,2.687.46.46,0,0,0,.5.5c.359,0,.711-.511,1.106-1.058l-.018.195c-.049.559.122.863.413.863.34,0,.651-.529.888-1.052h-.158c-.164.237-.316.377-.438.377s-.219-.231,0-.723Zm-6.189,4.037c0-.322.31-.523.754-.7a5.542,5.542,0,0,0,.657.249c.462.152.638.213.638.353,0,.3-.5.523-1.192.523-.578,0-.857-.122-.857-.426m1.258-1.964c-.2,0-.28-.17-.28-.365,0-.541.292-1.337.748-1.337.2,0,.28.17.28.365,0,.541-.292,1.338-.748,1.338m1.319,1.666c0-.389-.346-.529-.912-.7-.486-.146-.705-.189-.705-.347a.5.5,0,0,1,.31-.389,1.418,1.418,0,0,0,1.313-1.362.82.82,0,0,0-.067-.334h.675l.1-.347h-1.07a.826.826,0,0,0-.432-.122,1.41,1.41,0,0,0-1.392,1.344.783.783,0,0,0,.644.809c-.4.176-.614.383-.614.626a.382.382,0,0,0,.164.328c-.912.268-1.271.571-1.271,1s.553.6,1.21.6c1.113,0,2.043-.6,2.043-1.106m-4.25-2.6c.4,0,.407.164.347.6h.231L9.6,467.91H9.37c-.2.347-.359.6-.8.6H7.692l.444-1.222c.146-.407.231-.486.778-.486H9.3c.565,0,.632.152.632.717h.225l.188-1H6.993l-.061.189c.651.134.711.194.407,1.034L6.61,469.74c-.3.833-.432.9-1.179,1.034l-.055.188H9.109l.669-1.058H9.522a2.448,2.448,0,0,1-1.708.784c-.991,0-.9-.043-.571-.948l.353-.967Zm.486-2.547,1.186-.815v-.128H9.443l-.657.942Z" transform="translate(-4.67 -404.198)" fill="#161615"/>
    <path id="Tracé_6721" data-name="Tracé 6721" d="M23.827,415.331c.225,0,.419.17.316.6l-1.046.243c.182-.486.486-.845.73-.845m.578,1.684H24.2a1.256,1.256,0,0,1-.821.553c-.286,0-.432-.17-.432-.553a2.284,2.284,0,0,1,.049-.462L24.678,416c.328-.778-.067-1.119-.529-1.119-.8,0-1.7,1.331-1.7,2.5,0,.523.249.809.638.809.456,0,.93-.444,1.319-1.173m-.334-2.444,1.186-1.106v-.128h-.638l-.73,1.234Zm-3.483.778h.444l-.888,2.426a.282.282,0,0,0,.243.413,2.065,2.065,0,0,0,1.6-1.179h-.158a2.211,2.211,0,0,1-1.027.62l.815-2.28h.833l.1-.347h-.808l.31-.875h-.322l-.578.875-.571.1Zm-.438.274c.116-.4.055-.742-.249-.742-.359,0-.45.274-.815,1.058v-.45c0-.322-.1-.608-.4-.608-.34,0-.651.529-.888,1.052h.158c.164-.237.316-.377.438-.377.146,0,.225.225,0,.724l-.657,1.459c-.122.274.006.45.274.45.164,0,.237-.043.3-.219l.644-1.708c.182-.225.346-.419.553-.638Zm-3.733-.292c.225,0,.419.17.316.6l-1.046.243c.182-.486.486-.845.73-.845m.578,1.684h-.207a1.256,1.256,0,0,1-.821.553c-.286,0-.432-.17-.432-.553a2.284,2.284,0,0,1,.049-.462L17.267,416c.328-.778-.067-1.119-.529-1.119-.8,0-1.7,1.331-1.7,2.5,0,.523.249.809.638.809.456,0,.93-.444,1.319-1.173m-4.128.681c-.164,0-.4-.152-.4-.286a3.4,3.4,0,0,1,.164-.468l.274-.723c.292-.347.736-.717.985-.717.152,0,.267.1.267.322,0,.663-.62,1.872-1.289,1.872m1.915-2.14c0-.492-.182-.675-.523-.675-.426,0-.827.45-1.228,1l1.015-2.669-.055-.067-1.064.122v.128l.207.158c.188.146.128.3-.043.736L12,417.106a3.2,3.2,0,0,0-.176.517c0,.292.4.565.754.565.827,0,2.207-1.489,2.207-2.632m-3.307-.322a.25.25,0,0,0-.2-.353,1.566,1.566,0,0,0-1.295,1.052h.158a1.239,1.239,0,0,1,.675-.517l-.93,2.42a.242.242,0,0,0,.2.353,1.533,1.533,0,0,0,1.234-1.052h-.158a1.239,1.239,0,0,1-.675.517Zm.17-1.216a.4.4,0,1,0-.4-.4.4.4,0,0,0,.4.4m-2.45-.389H6.981l-.061.189c.651.134.711.194.407,1.034l-.717,1.994c-.3.833-.432.9-1.179,1.034l-.055.188H8.744l.73-1.3H9.218a2.334,2.334,0,0,1-1.648,1.027c-.565,0-.632-.1-.328-.948l.717-1.994c.3-.833.432-.9,1.179-1.034Z" transform="translate(-4.67 -358.902)" fill="#161615"/>
    <path id="Tracé_6722" data-name="Tracé 6722" d="M17.712,9.712c.118-.118.237-.245.356-.372h0a7.038,7.038,0,0,1,.694-.708,2.313,2.313,0,0,1,.226-.181c.021-.021.021-.062.042-.083-.1.042-.166.125-.27.166-.021,0-.042-.021-.021-.042l.222-.167h-.014c-.021,0-.021-.021-.021-.042a.847.847,0,0,0-.666.312c-.042.021-.083-.021-.1-.021-.312.1-.541.374-.853.5V9.033a4.007,4.007,0,0,1-.375.146,2.229,2.229,0,0,1-.52.021,6.963,6.963,0,0,0-.756.135l-.022.006a1.75,1.75,0,0,0-.388.156l-.014.008-.03.036a.506.506,0,0,1-.143.124,2.107,2.107,0,0,0-.345.27.059.059,0,0,1-.033.011c-.112.107-.222.216-.335.321a.1.1,0,0,1-.063.008l0,0,.012-.02.053-.088q.03-.049.062-.1c.028-.043.058-.086.088-.127a.019.019,0,0,0,0-.027.04.04,0,0,0-.029-.011,1.968,1.968,0,0,1,.349-.261v0c-.014,0-.034-.006-.024-.021s.024-.038.036-.057l.007-.019-.016-.016a.8.8,0,0,0-.1.068c-.05.045-.089.137-.164.136a.132.132,0,0,1-.032,0,.061.061,0,0,1-.022-.007l0,0,0-.006,0-.005.01-.018.01-.018.008-.014.015-.026.011-.019.027-.046.013-.022.022-.038a.025.025,0,0,0-.016-.037.474.474,0,0,1,.142-.124h-.006c.08-.04.159-.089.239-.134l.034-.03a1.4,1.4,0,0,0-.331.163.163.163,0,0,0-.035.019A.052.052,0,0,1,14.6,9.34a.024.024,0,0,1,0-.015c.021-.042.083-.062.125-.1.021,0,.042,0,.042.021.666-.52,1.581-.4,2.351-.666L17.3,8.45c.1-.042.187-.146.312-.208a.911.911,0,0,0,.354-.479.073.073,0,0,0-.021-.042,3.2,3.2,0,0,1-.915.687,3.911,3.911,0,0,1-1.373.25c.021-.042.062-.042.1-.042,0-.062.042-.083.083-.125h.062c.021,0,.021-.042.042-.042.042,0,.1-.021.083-.021-.062-.083-.187.062-.291,0,.042-.042.021-.1.062-.125h.083a.145.145,0,0,1,.042-.083c.312-.187.6-.333.895-.5-.062,0-.1.062-.166.021.042,0,0-.062.042-.062.229-.062.416-.187.645-.27-.083,0-.146.062-.229,0,.042-.021.062-.062.125-.062V7.285c0-.021.021-.021.042-.021a.073.073,0,0,1-.042-.021c.021-.042.083-.021.125-.062-.021,0-.062,0-.062-.021a.413.413,0,0,1,.27-.125c-.021-.042-.083,0-.083-.042,0-.021.021-.021.042-.021h-.042c-.042-.021-.021-.062-.021-.083a1.453,1.453,0,0,0,.187-.5c-.021,0-.042,0-.042-.021a1.708,1.708,0,0,1-.853.4h-.1a.422.422,0,0,1-.354-.021,1.462,1.462,0,0,1-.208-.166,2.4,2.4,0,0,0-.52-.25,4.671,4.671,0,0,0-1.6-.229,3.474,3.474,0,0,1,.728-.208,3.108,3.108,0,0,1,1.061-.208.7.7,0,0,0-.208,0,3.437,3.437,0,0,0-.895.125c-.208.042-.4.125-.6.166-.125.042-.187.166-.333.146V6.058a1.2,1.2,0,0,1,.791-.52,3.926,3.926,0,0,1,1.1.042,5.287,5.287,0,0,1,.791.146c.1,0,.125.166.208.187.125.042.25,0,.375.083,0-.042-.021-.083,0-.125.083-.083.187.021.27-.021.166-.1-.146-.291-.229-.437a.073.073,0,0,1,.021-.042,2.417,2.417,0,0,0,.5.416c.1.042.354.1.312-.021a3.335,3.335,0,0,0-.479-.624V5.059c-.042,0-.042-.021-.062-.042V4.934c-.083-.042-.062-.125-.1-.187-.062-.1-.021-.25-.062-.375a2.18,2.18,0,0,1-.083-.354c-.062-.354-.146-.666-.187-1-.041-.4.229-.707.416-1.061a1.781,1.781,0,0,1,.583-.666,1.828,1.828,0,0,1,.4-.666,1.736,1.736,0,0,1,.642-.416A5.578,5.578,0,0,1,19.474,0H5.2V11.01H15.307a9.144,9.144,0,0,1,1.345-.693,5.358,5.358,0,0,0,1.061-.605m-3.2-1.49c-.042,0-.125.021-.1-.021.021-.1.166-.1.25-.146.042-.021.1-.062.146-.042.042.062.1.042.146.083-.125.125-.291.062-.437.125M11.33,7.764a.072.072,0,0,1-.021-.042,6.429,6.429,0,0,0,.666-1.061,2.874,2.874,0,0,0,.707-.583,4.045,4.045,0,0,1,1.165-.915.806.806,0,0,1,.541.021c-.062.083-.166.062-.25.125a.076.076,0,0,1-.062-.021.076.076,0,0,0,.021-.062c-.208.229-.5.333-.666.6-.125.208-.208.479-.479.541-.083.021.021-.062-.021-.042a7.017,7.017,0,0,0-1.6,1.436m1.727-1.373c-.021.042-.044.046-.062.083a.162.162,0,0,1-.083.083c-.021,0-.042,0-.042-.021a.254.254,0,0,1,.166-.187c.021,0,.021.021.021.042m.966,3.117a.184.184,0,0,1-.051.061c.026.005.044.017.027.032a.452.452,0,0,1-.158.11.171.171,0,0,1-.032,0c-.025.025-.051.049-.078.073s-.139.006-.1-.025c.053-.047.1-.1.154-.145a1.033,1.033,0,0,0,.087-.083.26.26,0,0,1,.045-.046c.017-.012.127-.022.11.019m-.373-.172-.005,0c-.078.055-.155.111-.237.158s-.182.091-.275.135l0-.005a.028.028,0,0,0-.035-.008.989.989,0,0,0-.209.16l-.029.028,0,0,0,0-.03.029,0,0v0c-.015.015-.029.03-.045.049a.117.117,0,0,1-.028.029c-.013.009-.049.008-.045-.015,0,0,0,0,0,0l-.037.019-.032.018a.033.033,0,0,0-.014,0,.026.026,0,0,0-.015,0q-.038.03-.075.063a1.063,1.063,0,0,0-.121.128l0,0,0,.006-.006.008-.007.009,0,0-.014.021h0a.031.031,0,0,1-.017.008l-.008-.012-.006-.01c-.006-.011-.012-.022-.018-.033h0l0-.01c.023-.024.044-.049.065-.075l0,0,.022-.027.035-.045.013-.016c.023-.03.045-.059.065-.088v0l.009-.013c.01-.015.02-.03.028-.045s.016-.027.023-.041l0,0,0,0,0-.008c.007-.016.014-.032.02-.048l0-.005,0-.014.006-.023h0v0c0-.01.005-.02.007-.03a.021.021,0,0,0,0-.014A.659.659,0,0,1,12.71,9.5L12.7,9.5c-.03.019-.049.046-.077.067s-.064-.011-.038-.031a.539.539,0,0,0,.047-.043l0,0a1.061,1.061,0,0,1,.106-.106c.024-.017.045-.032.064-.049l.009-.008a.472.472,0,0,1,.047-.052l0,0c.2-.192.534-.184.8-.306.1-.042.229.021.333,0a.309.309,0,0,1,.187.042c-.187.1-.36.217-.53.324m.426-1.447c-.021-.021.062,0,.083-.042h-.166c-.021,0-.021-.021-.021-.042-.1.021-.229.062-.333.083-.146.042-.27.146-.437.187-.229.083-.416.27-.666.354-.021,0-.021-.021-.021-.042.021-.062.1-.083.146-.146,0-.021,0-.042-.021-.042a3.736,3.736,0,0,1,.6-.541V7.6c.062-.083.166-.125.208-.229a.375.375,0,0,1,.208-.187c-.021-.021-.062-.021-.062-.062-.083,0-.166.042-.25-.021a.294.294,0,0,1,.13-.074.076.076,0,0,1-.047-.03c-.021-.041.04-.088.1-.1.083-.021.187-.021.25-.083-.146-.021-.312.042-.458-.042a1.111,1.111,0,0,1,.52-.624c.021,0,.062,0,.062.021a.2.2,0,0,1-.166.208,2.2,2.2,0,0,1,.5.125c-.021.042-.062.021-.083.021.1.062.229.021.333.1-.062.062-.125,0-.187,0a5.446,5.446,0,0,1,1.873.749,5.729,5.729,0,0,1-1.436.437.46.46,0,0,1-.166-.021c0,.021,0,.062-.021.062a.342.342,0,0,0-.208.042c-.083.042-.208.062-.271,0" transform="translate(-4.513)" fill="#161615"/>
    <path id="Tracé_6723" data-name="Tracé 6723" d="M147.352,0H135.508a.524.524,0,0,1,.113.052l.3.159a.981.981,0,0,1,.4.333c.042.062.1.187.062.271-.042.1-.062.27-.166.312a.774.774,0,0,1-.437.042,1.048,1.048,0,0,1-.25-.042,1.693,1.693,0,0,1,.811.562c.021.042.1.062.187.062.021,0,.021.042.021.062-.042.042-.083.062-.062.125h.063c.1-.042.083-.25.229-.187a.235.235,0,0,1,.083.312,2.2,2.2,0,0,1-.25.208.178.178,0,0,0,0,.146.641.641,0,0,1,.1.25c.063.146.083.312.146.458A2.933,2.933,0,0,1,137,4.06c0,.166-.083.312-.021.479a1.751,1.751,0,0,0,.229.437,3.183,3.183,0,0,1,.229.333c.125.208.354.416.25.666-.062.146-.291.125-.437.208-.125.1-.021.27.042.374.1.187-.125.312-.27.375.042.062.125.042.146.083.021.1.125.166.062.27-.083.125-.333.187-.208.374a.551.551,0,0,1-.021.458.51.51,0,0,1-.375.312.849.849,0,0,1-.4.021.3.3,0,0,0-.125-.041,9.259,9.259,0,0,0-1.061-.146,1.194,1.194,0,0,0-.291.083,1.842,1.842,0,0,0-.252.223l0,0-.045.05-.027.032-.018.022a1.968,1.968,0,0,0-.164.24l-.009.016-.016.029a1.994,1.994,0,0,0-.158.382,1.251,1.251,0,0,0,.02.984c.028.028.687.231,1.146.435a3.9,3.9,0,0,1,.491.249h11.631Z" transform="translate(-116.392)" fill="#161615"/>
    <path id="Tracé_6724" data-name="Tracé 6724" d="M145.6,29.238c.083.021.208.021.208.062-.042.166-.291.208-.416.375h-.062c-.062.042-.042.146-.1.146a.293.293,0,0,0-.187.021.357.357,0,0,0,.312.125.093.093,0,0,1,.062.083.064.064,0,0,0,.042-.021c.021,0,.042,0,.042.021v.083c-.063.083-.167.041-.25.062a.935.935,0,0,0,.479,0c.125-.042,0-.25.083-.354-.042,0,0-.062-.042-.062.042-.042.083-.1.125-.125a.148.148,0,0,0,.125-.062c0-.041-.083-.062-.062-.1.125-.083.229-.208.187-.333-.021-.062-.187-.062-.291-.1a.7.7,0,0,0-.354.021,1.726,1.726,0,0,0-.312.083,1.436,1.436,0,0,0-.4.208,2.938,2.938,0,0,1,.458-.125,1.364,1.364,0,0,1,.354,0" transform="translate(-125.783 -25.221)" fill="#8c8b8b"/>
  </g>
</svg>
