<?xml version="1.0" encoding="UTF-8"?>
<svg xmlns="http://www.w3.org/2000/svg" xmlns:xlink="http://www.w3.org/1999/xlink" width="25px" height="px" viewBox="0 0 25 25" version="1.1">
<g id="surface1">
<path style=" stroke:none;fill-rule:nonzero;fill:rgb(0%,0%,0%);fill-opacity:1;" d="M 25.371094 12.683594 C 25.371094 5.9375 20.085938 0.371094 13.347656 0.015625 C 6.609375 -0.335938 0.773438 4.648438 0.0664062 11.363281 C -0.636719 18.074219 4.039062 24.164062 10.703125 25.214844 L 10.703125 16.351562 L 7.480469 16.351562 L 7.480469 12.683594 L 10.703125 12.683594 L 10.703125 9.890625 C 10.703125 6.710938 12.597656 4.957031 15.492188 4.957031 C 16.445312 4.96875 17.394531 5.050781 18.335938 5.203125 L 18.335938 8.324219 L 16.734375 8.324219 C 16.183594 8.25 15.625 8.433594 15.222656 8.820312 C 14.820312 9.203125 14.617188 9.753906 14.667969 10.308594 L 14.667969 12.6875 L 18.183594 12.6875 L 17.621094 16.351562 L 14.667969 16.351562 L 14.667969 25.214844 C 20.832031 24.238281 25.371094 18.925781 25.371094 12.683594 Z M 25.371094 12.683594 "/>
<path style=" stroke:none;fill-rule:nonzero;fill:rgb(100%,100%,100%);fill-opacity:1;" d="M 17.621094 16.351562 L 18.183594 12.6875 L 14.667969 12.6875 L 14.667969 10.308594 C 14.617188 9.753906 14.820312 9.203125 15.222656 8.820312 C 15.625 8.433594 16.183594 8.25 16.734375 8.324219 L 18.335938 8.324219 L 18.335938 5.203125 C 17.394531 5.050781 16.445312 4.96875 15.492188 4.957031 C 12.59375 4.957031 10.703125 6.710938 10.703125 9.890625 L 10.703125 12.6875 L 7.480469 12.6875 L 7.480469 16.351562 L 10.703125 16.351562 L 10.703125 25.21875 C 12.015625 25.421875 13.355469 25.421875 14.667969 25.21875 L 14.667969 16.351562 Z M 17.621094 16.351562 "/>
</g>
</svg>
