<?xml version="1.0" encoding="UTF-8"?>
<svg xmlns="http://www.w3.org/2000/svg" xmlns:xlink="http://www.w3.org/1999/xlink" width="25px" height="px" viewBox="0 0 25 25" version="1.1">
<g id="surface1">
<path style=" stroke:none;fill-rule:evenodd;fill:rgb(0%,0%,0%);fill-opacity:1;" d="M 25 12.5 C 25 19.402344 19.402344 25 12.5 25 C 5.597656 25 0 19.402344 0 12.5 C 0 5.597656 5.597656 0 12.5 0 C 19.402344 0 25 5.597656 25 12.5 Z M 25 12.5 "/>
<path style=" stroke:none;fill-rule:nonzero;fill:rgb(100%,100%,100%);fill-opacity:1;" d="M 16.597656 7.519531 C 16.101562 7.519531 15.691406 7.929688 15.691406 8.429688 C 15.691406 8.925781 16.101562 9.335938 16.597656 9.335938 C 17.097656 9.335938 17.507812 8.925781 17.507812 8.429688 C 17.507812 7.929688 17.097656 7.519531 16.597656 7.519531 Z M 16.597656 7.519531 "/>
<path style=" stroke:none;fill-rule:nonzero;fill:rgb(100%,100%,100%);fill-opacity:1;" d="M 12.5625 8.683594 C 10.46875 8.683594 8.746094 10.40625 8.746094 12.5 C 8.746094 14.59375 10.46875 16.316406 12.5625 16.316406 C 14.65625 16.316406 16.378906 14.59375 16.378906 12.5 C 16.375 10.40625 14.65625 8.6875 12.5625 8.683594 Z M 12.5625 14.945312 C 11.222656 14.945312 10.117188 13.839844 10.117188 12.5 C 10.117188 11.160156 11.222656 10.054688 12.5625 10.054688 C 13.902344 10.054688 15.003906 11.160156 15.003906 12.5 C 15.003906 13.839844 13.902344 14.941406 12.5625 14.945312 Z M 12.5625 14.945312 "/>
<path style=" stroke:none;fill-rule:nonzero;fill:rgb(100%,100%,100%);fill-opacity:1;" d="M 15.589844 20.246094 L 9.40625 20.246094 C 6.851562 20.242188 4.753906 18.144531 4.75 15.59375 L 4.75 9.40625 C 4.753906 6.855469 6.855469 4.757812 9.40625 4.753906 L 15.589844 4.753906 C 18.144531 4.753906 20.246094 6.851562 20.25 9.40625 L 20.25 15.59375 C 20.246094 18.144531 18.144531 20.246094 15.589844 20.246094 Z M 9.40625 6.210938 C 7.652344 6.210938 6.210938 7.652344 6.207031 9.40625 L 6.207031 15.59375 C 6.210938 17.347656 7.652344 18.789062 9.40625 18.789062 L 15.589844 18.789062 C 17.34375 18.789062 18.785156 17.347656 18.789062 15.59375 L 18.789062 9.40625 C 18.785156 7.652344 17.34375 6.210938 15.589844 6.210938 Z M 9.40625 6.210938 "/>
</g>
</svg>
