<svg xmlns="http://www.w3.org/2000/svg" xmlns:xlink="http://www.w3.org/1999/xlink" width="548.592" height="749.734"
  viewBox="0 0 548.592 749.734">
  <defs>
    <clipPath id="clip-path">
      <path id="Tracé_6726" data-name="Tracé 6726" d="M0,451.661H749.734V-96.931H0Z" transform="translate(0 96.931)"
        fill="#fd3158" />
    </clipPath>
  </defs>
  <g id="Groupe_6898" data-name="Groupe 6898" transform="translate(96.931 749.734) rotate(-90)">
    <g id="Groupe_6897" data-name="Groupe 6897" transform="translate(0 -96.931)" clip-path="url(#clip-path)">
      <g id="Groupe_6896" data-name="Groupe 6896" transform="translate(-0.001 0)">
        <path id="Tracé_6725" data-name="Tracé 6725"
          d="M617.264,295.732v-.011c.164-54.57-92.761-144.263-243.392-226.537C180.132-36.64-35.725-90.123-108.2-50.28c-16.13,8.874-23.8,21.614-23.85,37.235l-.006,1.285c-.017,6.152-.04,12.632-.057,19.282l-.051,17.364c-.034,10.284-.062,20.81-.1,31.383l-.1,32.028c-.017,5.558-.034,10.985-.051,16.328l-.062,21.308h0c-.164,54.581,92.789,144.275,243.42,226.554C304.689,458.3,520.507,511.788,593,471.927c16.13-8.863,23.8-21.6,23.85-37.223l.413-138.983v.011m-81.08,134.484c6.226-.306,14.483-1.239,20.686-1.851q-.051,8.43-.091,16.866c.011,1.732.034,4.958,1.387,6.294a3.883,3.883,0,0,0,5.914-1.9c.707-1.624.713-1.845.77-13.43-.232-6.373-2.388-9.553-10.04-14.8-16.922-11.6-17.664-20.975-17.573-37.9.679-20.578,7.471-29.939,24.234-33.392a21.2,21.2,0,0,1,8.546.13c3.152,3.356,6.3,6.712,9.152,10,1.743,6.531,1.8,15.711,1.743,27.064-4.709,1.6-11.229,3.045-16.056,4.29.017-3.43.04-8,.057-11.432-.006-2.236-.017-5.614-1.194-6.712a3.853,3.853,0,0,0-5.462,1.89c-.889,1.67-.9,4.171-.928,10.2.266,6.186,3.435,8.574,9.485,12.6,14.732,9.808,14.7,16.685,14.579,42.255-.17,7.4-.526,22.786-9.31,31.094-5.762,5.445-21.258,10.153-30.33-.283-5.756-6.616-5.711-14.585-5.569-40.993M467.222,385.1c.668-15.909,5.1-34.031,33.731-32.956C522.488,353.7,527,367.5,528.928,373.393c2.049,6.265,2.049,6.265,1.7,69.443-.209,13.838-3.35,23.442-9.6,29.362-10.589,10.023-36.686,9.4-48.859-10.3-5.365-8.687-5.365-8.687-4.947-76.8m-99.637,65.991q.416-61.294.826-122.587l26.391,7.114c8.438,22.808,12.757,34.609,19.254,52.425,7.714-16.594,12.349-26.759,19.831-43.528l24.07,4.364h0q-.382,61.328-.764,122.649c-7.946-1.3-18.473-3.379-26.385-4.845q.2-30.562.391-61.124c.606-3.407,1.409-7.952,2.009-11.353l-.538,1.749c-7.007,15.926-11.6,26.012-15.281,34.116l-5.971-1.358c-7.052-18.433-8.7-22.7-15.643-40.647l-.2-1.075c.374,3.622.866,8.455,1.239,12.078q-.2,29.883-.391,59.771c-8.693-2.2-20.188-5.411-28.836-7.748m-90.4-77.407c10.306,3.883,24.161,8.789,34.524,12.519q-.051,8.413-.113,16.837c.023,1.975.062,4.969,2.428,7.34,1.585,1.585,7.9,5.077,10.7,2.734,1.307-1.092,1.313-1.313,1.387-12.847-.475-7.109-5.716-12.485-18.065-22.6-28.174-23.086-29.424-33.063-29.305-50.122,1.064-20.686,12.553-25.248,40.964-16.26,38.236,12.921,38.118,31.145,37.959,54.219-9.525-2.852-22.135-6.933-31.609-9.927.023-3.424.057-7.991.079-11.41-.023-2.5-.051-5.609-2.241-7.7-.526-.5-6.435-4.522-9.887-2.383-1.568.974-1.585,3.475-1.624,9.525.464,6.163,5.371,10.64,17.3,20.126,29.4,23.374,29.351,30.177,29.181,55.487-.232,4.907-.572,12.315-5.575,17.42-12.847,13.113-48.984-2.366-61.446-12.678-14.907-12.338-14.84-22.667-14.647-50.28m-97.47-82.41c1.273-23.719,14.721-28.6,44.977-16.334,31.394,13.521,38.633,31.366,41.015,37.229,3.169,7.822,3.169,7.822,2.728,70.621-.192,8.625-2.111,14.93-5.716,18.733-14.9,15.734-58.385-6.237-71.441-23.578-12.061-16.017-12.061-16.017-11.563-86.671m-97.73-52.2c1.16-24.184,12.819-27.443,43.007-12.044,44.105,23.436,43.975,42.119,43.732,76.037-11-5.388-25.508-12.847-36.414-18.394.006-1.149.017-2.683.023-3.832.034-4.165.074-9.712.1-13.872-.034-5.937-.645-9.5-3.9-12.513-.091-.091-9.587-8.614-11.336-.7-.543,2.468-.543,2.468-.917,56.143.006,6.565.277,11.127,3.747,14.528,1.653,1.624,8.818,6.656,10.736,2.9,1.262-2.462,1.262-2.462,1.432-26.668,10.906,5.677,25.61,12.972,36.606,18.484q-.068,10.62-.147,21.235c-.441,6.231-1.047,14.772-7.063,19.322-14.155,10.691-57.9-14.641-70.117-33.154-9.984-15.134-9.984-15.134-9.491-87.481M-20.7,259.624q.357-61.234.719-122.451C2.63,154.219,7.2,157.287,36.938,177.22q-.076,12.581-.164,25.168c-9.633-6.322-22.271-15.026-31.767-21.529q-.068,11.4-.142,22.8c8.382,5.9,19.763,13.493,28.258,19.237q-.085,12.751-.164,25.491c-8.569-5.648-19.792-13.442-28.253-19.237q-.068,11.4-.136,22.8c9.582,6.712,22.582,15.377,32.316,21.9q-.085,13.091-.17,26.187C10.389,282.67,5.641,279.149-20.7,259.624m-50.976-43.551q.314-61.234.634-122.463c6.011,5.745,14.324,13.119,20.5,18.705q-.255,47.023-.515,94.046c6.775,5.824,16.062,13.311,22.972,18.977q-.076,14.2-.164,28.411C-48,237.913-50.7,235.423-71.675,216.073M-25.114-6.876c.832,2.909,4.528,2.739,5.66,1.76,1.217-1.047,1.251-3.373,1.273-4.765l.011-5.048,7.64.549C-10.54-5.608-10.546-2.326-14.343.532-17.485,2.9-25.566,2.9-29.211-.328c-3.152-2.8-3.277-7.578-3.334-9.882.028-20.069.028-20.069,1.155-23.023.5-1.3,2.666-5.518,9.627-5.173,7.827.662,10.968,4.075,11.2,12.185l-.006,4.856-7.6-.543c.011-6.712.011-7.573-.713-8.7-1.132-1.766-4.245-1.743-5.337-.73-1.217,1.121-1.256,3.588-1.279,5.065-.023,17.981-.023,17.981.379,19.4m-1.551,27.642c.255,2.105.583,4.913.838,7.018q-.017,10.943-.034,21.886l-6.316-.2q.025-19.712.057-39.425l5.943.187q3.328,8.693,6.7,17.375c2.875-6.95,3.95-9.548,6.922-16.571l6.327.532c-.006,4.171-.011,9.729-.017,13.9-.006,2.083-.006,4.862-.011,6.95-.006,4.171-.011,9.729-.017,13.9,0,1.4-.006,3.277-.006,4.681L-13,50.433q.009-11.087.028-22.169l.99-6.854-1.285,4.126c-1.59,3.786-3.713,8.835-5.292,12.627l-1.681-.1c-1.63-3.984-3.8-9.3-5.416-13.3ZM9.155-35.072l-.006,6.6-4.828-.572Q4.3-15.982,4.288-2.92l4.828.577L9.1,4.364l-16.849-1.8.006-6.7,4.8.447q.017-13.065.034-26.119l-4.8-.447.011-6.6h0Zm3.809,80.989c1.081-.962,1.121-3.034,1.143-4.273q.017-13.88.034-27.772l7.878,1.115c-.04,32.237-.04,32.237-1.256,34.427-3.911,7.035-15.326,3.65-18.4.906-3.39-3.022-3.52-7.782-3.588-10.068q.017-14.1.04-28.2l7.623.849C6.4,42.119,6.4,42.119,6.608,43.155c.809,4.1,5.32,3.679,6.356,2.762M39.083-30.522q-.017,19.721-.04,39.436L32.026,7.709c-4.658-10.7-9.978-23.052-10.4-24.036L20.1-21.286l.475,5.954q-.017,10.62-.028,21.241l-7.058-.985q.017-10.425.028-20.85c.006-4.171.011-9.729.017-13.9,0-1.4.006-3.277.006-4.68l6.95.968C22.2-29.492,26.213-20.018,30.617-9.746L32.15-5.037l-.43-5.4q.009-10.671.023-21.342Zm-4.9,59.765.492,5.965q-.008,10.629-.023,21.246l-7.284-1.2q.017-19.721.045-39.436L34.584,17q5.187,12.055,10.408,24.093l1.607,4.76-.447-5.416c.006-4.171.011-9.735.011-13.906.006-2.23.006-5.207.011-7.442l7.55,1.477Q53.708,40.283,53.685,60l-7.244-1.415Q41.084,46.418,35.755,34.247ZM66.544-36.329c-2.439,2.032-5.7,4.731-8.127,6.78l-6.067-1.234c1.76-2.2,4.1-5.128,5.875-7.318ZM53.17,4.93,67.149,7.861l-.011,6.656L44.913,9.984q.017-19.712.04-39.436L66.8-25.01l-.006,6.435L53.2-21.427c-.006,2.937-.006,6.854-.011,9.785l11.925,2.49-.006,6.5L53.181-5.133c-.006,3.017-.011,7.041-.011,10.063m19.2,52.363,5.524,1.273-.006,6.712-19.362-4.29.006-6.707,5.524,1.172q.017-13.065.028-26.13l-5.524-1.166.006-6.61h.006l19.356,4.284-.006,6.61L72.4,31.162q-.017,13.065-.028,26.13M104.48-15.813q-.017,19.721-.034,39.447l-8.32-2.185c.006-4.171.011-9.735.011-13.906.006-2.479.006-5.79.011-8.269l1.228-6.622-1.59,3.82C93.795-.13,91.152,4.4,89.177,7.8L87.06,7.273c-2.06-4.409-4.8-10.289-6.865-14.7l-1.279-4.256c.317,2.173.747,5.065,1.07,7.239q-.017,10.943-.023,21.9l-8.088-1.873q.025-19.721.04-39.442l7.607,1.76C83.964-12.066,85.305-9.055,88.005-3c3.481-6.044,4.918-8.546,8.62-14.873Zm5.145,60.6-.006,4.856-9.565-2.569c.006-7,.006-7.737-1.217-9.282-1.132-1.432-5.648-3.017-7.176-1.341-.939,1.024-.973,2.954-1,4.233-.017,18.128-.017,18.128.5,19.52,1.279,3.413,6.56,4.233,7.878,2.9.939-.951.979-2.779,1-3.99l.006-5.054,9.627,2.581c-.011,8.823-.011,12.123-4.788,13.917-4,1.5-14.342-.724-19.045-4.975-4.115-3.713-4.284-8.535-4.364-10.849.023-20.035.023-20.035.973-21.761.973-1.755,3.254-5.869,12.966-3.4,9.927,2.8,13.906,7.058,14.206,15.213m30.709-10.815-9.3-2.819-1.511-6.282-10.838-3.141-1.415,5.428-9.089-2.519c5.088-16.509,5.744-18.631,11.257-36.323l9.191,2.666c4.052,14.958,8.908,32.775,11.7,42.99M128.058,71.889l5.9,1.76-.006,6.707L113.2,74.345l.006-6.707,5.937,1.67c.006-4.171.011-9.735.011-13.906.006-3.667.011-8.557.011-12.225l-5.931-1.67.006-6.61,20.742,6.011-.006,6.6-5.9-1.754q-.017,13.065-.023,26.13m39.674-10.244c-.006,11.427-.011,16.645-14.534,12.315l-4.681-1.494c0,3.718-.006,8.676-.011,12.395l-9.2-2.875q.017-19.721.034-39.453c22.056,6.939,27.981,8.8,28.394,19.113m33.431,41.327-9.7-3.549-1.551-6.39-11.381-4.024-1.483,5.314-9.565-3.266q5.883-17.709,11.829-35.412l9.633,3.407q6.1,21.962,12.219,43.919m14.03-1.822,14.613,5.716c0,2.134-.006,4.975-.006,7.108l-24.608-9.5q.008-10.434.017-20.867c.006-4.171.006-9.735.011-13.906,0-1.409,0-3.283.006-4.686l9.995,3.792q-.017,16.172-.028,32.345m347.834,241.83C471.681,359.81,282.911,307.2,111.368,213.5,28.879,168.447-36.15,121.2-78.229,78.68c91.341-16.826,280.145,35.786,451.688,129.481,82.483,45.051,147.5,92.3,189.569,134.818M180.177,83.344l8.088,2.858c-1.058-4.318-2.468-10.08-3.526-14.4l-.589-5.694-.6,5.269c-1.013,3.588-2.36,8.376-3.373,11.964M158.19,65.012c.011-9.961.011-10.346-5.5-12.219l-4.16-1.33c0,4.171-.006,9.735-.011,13.906v.889l4.16,1.33h0c3.843,1.132,5.388.413,5.507-2.575M120.259,15.943l7.714,2.241c-1.007-4.239-2.354-9.893-3.362-14.132l-.566-5.671-.566,5.343c-.968,3.667-2.253,8.552-3.22,12.219m96.112,286.116c-.713,2.8-.713,2.8-1.092,56.5.074,10.029,2.026,13.832,8.7,16.951,6.18,2.671,7.833.34,8.608-4.6.249-1.6.249-1.6.623-54.3-.04-5.3-.351-10.34-3.7-13.775-1.075-1.109-11.127-8.659-13.136-.781m278.555,80.31c-.521,3.113-.521,3.113-.843,56.851.051,9.995,1.46,13.057,6.282,13.651,6.226.464,6.226.464,6.593-62.346-.023-5.286-.238-10.2-2.6-12.349-1.285-1.16-8.076-3.854-9.435,4.194"
          transform="translate(132.471 63.467)" fill="#fd3158" />
      </g>
    </g>
  </g>
</svg>