<svg xmlns="http://www.w3.org/2000/svg" xmlns:xlink="http://www.w3.org/1999/xlink" width="179.998" height="131.707" viewBox="0 0 179.998 131.707">
  <defs>
    <clipPath id="clip-path">
      <path id="Tracé_6726" data-name="Tracé 6726" d="M0,34.776H180V-96.931H0Z" transform="translate(0 96.931)" fill="#fd3158"/>
    </clipPath>
  </defs>
  <g id="Groupe_6922" data-name="Groupe 6922" transform="translate(0 96.931)">
    <g id="Groupe_6897" data-name="Groupe 6897" transform="translate(0 -96.931)" clip-path="url(#clip-path)">
      <g id="Groupe_6896" data-name="Groupe 6896" transform="translate(0 0)">
        <path id="Tracé_6725" data-name="Tracé 6725" d="M47.527,22.77v0c.039-13.1-22.27-34.635-58.434-54.388C-57.421-57.026-109.244-69.867-126.645-60.3c-3.873,2.131-5.715,5.189-5.726,8.939v.308c0,1.477-.01,3.033-.014,4.629l-.012,4.169c-.008,2.469-.015,5-.023,7.534l-.023,7.689c0,1.334-.008,2.637-.012,3.92L-132.471-18h0c-.039,13.1,22.277,34.638,58.441,54.392C-27.517,61.8,24.3,74.641,41.7,65.071c3.872-2.128,5.714-5.186,5.726-8.937l.1-33.367v0M28.061,55.057c1.495-.073,3.477-.3,4.966-.444q-.012,2.024-.022,4.049a2.445,2.445,0,0,0,.333,1.511.932.932,0,0,0,1.42-.455c.17-.39.171-.443.185-3.224-.056-1.53-.573-2.294-2.41-3.553-4.063-2.785-4.241-5.036-4.219-9.1.163-4.94,1.794-7.188,5.818-8.017a5.091,5.091,0,0,1,2.052.031c.757.806,1.512,1.612,2.2,2.4a27.577,27.577,0,0,1,.419,6.5c-1.131.383-2.7.731-3.855,1.03,0-.823.01-1.921.014-2.745,0-.537,0-1.348-.287-1.612a.925.925,0,0,0-1.311.454,6.125,6.125,0,0,0-.223,2.45c.064,1.485.825,2.059,2.277,3.026,3.537,2.355,3.529,4.006,3.5,10.145-.041,1.776-.126,5.47-2.235,7.465C35.3,66.274,31.576,67.4,29.4,64.9c-1.382-1.588-1.371-3.5-1.337-9.842M11.5,44.227c.16-3.82,1.224-8.17,8.1-7.912,5.17.372,6.253,3.686,6.716,5.1.492,1.5.492,1.5.408,16.672-.05,3.322-.8,5.628-2.3,7.049-2.542,2.406-8.808,2.257-11.73-2.473C11.4,60.578,11.4,60.578,11.5,44.227M-12.417,60.07q.1-14.716.2-29.431l6.336,1.708c2.026,5.476,3.063,8.309,4.623,12.586C.592,40.949,1.705,38.509,3.5,34.483L9.28,35.53h0Q9.188,50.254,9.1,64.976c-1.908-.311-4.435-.811-6.335-1.163l.094-14.675c.145-.818.338-1.909.482-2.726l-.129.42C1.527,50.656.425,53.078-.46,55.023L-1.893,54.7c-1.693-4.426-2.09-5.45-3.756-9.759L-5.7,44.68c.09.87.208,2.03.3,2.9q-.047,7.174-.094,14.35c-2.087-.527-4.847-1.3-6.923-1.86m-21.7-18.584c2.474.932,5.8,2.11,8.289,3.006q-.012,2.02-.027,4.042a2.348,2.348,0,0,0,.583,1.762c.38.38,1.9,1.219,2.568.656.314-.262.315-.315.333-3.084-.114-1.707-1.372-3-4.337-5.427-6.764-5.542-7.064-7.938-7.036-12.033.255-4.966,3.014-6.061,9.835-3.9,9.18,3.1,9.151,7.477,9.113,13.017-2.287-.685-5.314-1.664-7.589-2.383.005-.822.014-1.919.019-2.739a2.439,2.439,0,0,0-.538-1.848c-.126-.121-1.545-1.086-2.374-.572-.376.234-.38.834-.39,2.287.111,1.48,1.289,2.554,4.152,4.832,7.057,5.612,7.047,7.245,7.006,13.321A6.148,6.148,0,0,1-15.852,56.6c-3.084,3.148-11.76-.568-14.752-3.044-3.579-2.962-3.563-5.442-3.517-12.071M-57.521,21.7c.306-5.695,3.534-6.867,10.8-3.921,7.537,3.246,9.275,7.53,9.847,8.938.761,1.878.761,1.878.655,16.955a6.664,6.664,0,0,1-1.372,4.5c-3.576,3.777-14.017-1.5-17.152-5.661-2.9-3.845-2.9-3.845-2.776-20.808M-80.984,9.169c.279-5.806,3.078-6.589,10.325-2.891C-60.07,11.9-60.1,16.389-60.16,24.533c-2.64-1.294-6.124-3.084-8.742-4.416,0-.276,0-.644.005-.92.008-1,.018-2.332.024-3.33-.008-1.425-.155-2.281-.936-3-.022-.022-2.3-2.068-2.722-.167-.13.592-.13.592-.22,13.479,0,1.576.067,2.671.9,3.488.4.39,2.117,1.6,2.578.7.3-.591.3-.591.344-6.4,2.618,1.363,6.148,3.114,8.789,4.438q-.016,2.55-.035,5.1c-.106,1.5-.251,3.546-1.7,4.639-3.4,2.567-13.9-3.515-16.834-7.96-2.4-3.633-2.4-3.633-2.279-21M-105.637,14.1q.086-14.7.173-29.4c5.428,4.093,6.525,4.829,13.665,9.615q-.018,3.021-.039,6.042c-2.313-1.518-5.347-3.608-7.627-5.169Q-99.481-2.072-99.5.666c2.012,1.416,4.745,3.239,6.784,4.618q-.02,3.061-.039,6.12c-2.057-1.356-4.752-3.227-6.783-4.618l-.033,5.473c2.3,1.611,5.422,3.692,7.759,5.257q-.02,3.143-.041,6.287c-6.321-4.169-7.461-5.014-13.785-9.7M-117.875,3.645q.075-14.7.152-29.4c1.443,1.379,3.439,3.15,4.921,4.491q-.061,11.289-.124,22.579c1.626,1.4,3.856,3.2,5.515,4.556q-.018,3.41-.039,6.821c-4.742-3.8-5.389-4.4-10.426-9.045M-106.7-49.881a.905.905,0,0,0,1.359.423c.292-.251.3-.81.306-1.144l0-1.212,1.834.132c0,2.106,0,2.894-.916,3.58a3.438,3.438,0,0,1-3.569-.207,3.229,3.229,0,0,1-.8-2.372c.007-4.818.007-4.818.277-5.527a2.128,2.128,0,0,1,2.311-1.242c1.879.159,2.633.978,2.689,2.925v1.166l-1.823-.13c0-1.612,0-1.818-.171-2.088a.967.967,0,0,0-1.281-.175,1.81,1.81,0,0,0-.307,1.216c-.005,4.317-.005,4.317.091,4.657m-.372,6.636c.061.505.14,1.179.2,1.685q0,2.627-.008,5.254l-1.516-.049q.006-4.733.014-9.465l1.427.045q.8,2.087,1.607,4.171c.69-1.669.948-2.292,1.662-3.978l1.519.128c0,1,0,2.336,0,3.337,0,.5,0,1.167,0,1.669,0,1,0,2.336,0,3.337,0,.337,0,.787,0,1.124l-1.613-.135q0-2.662.007-5.322l.238-1.645-.308.991c-.382.909-.891,2.121-1.27,3.031l-.4-.024c-.391-.957-.912-2.234-1.3-3.193Zm8.6-13.406v1.586l-1.159-.137q0,3.135-.008,6.271l1.159.139,0,1.61-4.045-.432v-1.609l1.152.107q0-3.137.008-6.271l-1.152-.107,0-1.586h0Zm.914,19.444a1.48,1.48,0,0,0,.274-1.026q0-3.332.008-6.667l1.891.268c-.01,7.74-.01,7.74-.3,8.265-.939,1.689-3.68.876-4.417.217a3.255,3.255,0,0,1-.861-2.417q0-3.385.01-6.771l1.83.2c-.008,7.015-.008,7.015.041,7.264a1.012,1.012,0,0,0,1.526.663m6.271-18.352q0,4.735-.01,9.468l-1.685-.289c-1.118-2.568-2.4-5.534-2.5-5.771l-.366-1.19.114,1.429q0,2.55-.007,5.1l-1.694-.236q0-2.5.007-5.006c0-1,0-2.336,0-3.337,0-.337,0-.787,0-1.124l1.669.232c.41.972,1.374,3.246,2.431,5.712l.368,1.13-.1-1.3q0-2.562.005-5.124Zm-1.177,14.349.118,1.432q0,2.552-.005,5.1l-1.749-.288q0-4.735.011-9.468l1.722.283q1.245,2.894,2.5,5.784l.386,1.143-.107-1.3c0-1,0-2.337,0-3.339,0-.535,0-1.25,0-1.787l1.813.355q0,4.735-.01,9.468l-1.739-.34q-1.286-2.921-2.565-5.843Zm7.769-15.743c-.586.488-1.368,1.136-1.951,1.628l-1.457-.3c.423-.527.985-1.231,1.41-1.757ZM-87.9-47.046l3.356.7,0,1.6-5.336-1.088q0-4.733.01-9.468l5.245,1.067v1.545l-3.264-.685c0,.705,0,1.645,0,2.349l2.863.6v1.561l-2.863-.6c0,.724,0,1.69,0,2.416m4.609,12.571,1.326.306v1.611l-4.648-1.03V-35.2l1.326.281q0-3.137.007-6.273l-1.326-.28v-1.587h0l4.647,1.029v1.587l-1.326-.307q0,3.137-.007,6.273m7.71-17.551q0,4.735-.008,9.471l-2-.524c0-1,0-2.337,0-3.339,0-.6,0-1.39,0-1.985l.295-1.59-.382.917c-.478.815-1.113,1.9-1.587,2.719l-.508-.126-1.648-3.53-.307-1.022c.076.522.179,1.216.257,1.738q0,2.627-.005,5.257l-1.942-.45q.006-4.735.009-9.469l1.826.423c1.067,2.41,1.389,3.133,2.037,4.586C-78.7-50.4-78.358-51-77.469-52.522Zm1.235,14.55v1.166l-2.3-.617c0-1.681,0-1.857-.292-2.228-.272-.344-1.356-.724-1.723-.322a1.644,1.644,0,0,0-.24,1.016c0,4.352,0,4.352.121,4.686a1.446,1.446,0,0,0,1.891.7,1.465,1.465,0,0,0,.241-.958v-1.213l2.311.62c0,2.118,0,2.91-1.15,3.341a5.966,5.966,0,0,1-4.572-1.194,3.441,3.441,0,0,1-1.048-2.6c.005-4.81.005-4.81.234-5.224s.781-1.409,3.113-.817c2.383.671,3.339,1.694,3.411,3.652m7.373-2.6-2.232-.677-.363-1.508-2.6-.754-.34,1.3-2.182-.6c1.222-3.964,1.379-4.473,2.7-8.721l2.207.64c.973,3.591,2.139,7.869,2.81,10.321m-2.947,9.1,1.416.423v1.61l-4.981-1.443v-1.61l1.425.4c0-1,0-2.337,0-3.339,0-.88,0-2.054,0-2.935l-1.424-.4v-1.587l4.98,1.443v1.586l-1.416-.421q0,3.137-.005,6.273M-60.4-33.43c0,2.743,0,4-3.489,2.957l-1.124-.359c0,.893,0,2.083,0,2.976l-2.209-.69q0-4.735.008-9.472c5.3,1.666,6.718,2.113,6.817,4.589m8.026,9.922L-54.7-24.36l-.372-1.534-2.732-.966-.356,1.276-2.3-.784q1.412-4.252,2.84-8.5l2.313.818q1.465,5.273,2.934,10.544M-49-23.946l3.508,1.372c0,.512,0,1.194,0,1.707L-51.4-23.148q0-2.5,0-5.01c0-1,0-2.337,0-3.339,0-.338,0-.788,0-1.125l2.4.91q0,3.883-.007,7.765M34.506,34.113C12.575,38.154-32.745,25.524-73.93,3.029c-19.8-10.817-35.416-22.16-45.519-32.369,21.929-4.04,67.258,8.592,108.442,31.086C8.8,12.562,24.406,23.9,34.506,34.113M-57.41-28.22l1.942.686-.847-3.457-.141-1.367-.144,1.265c-.243.861-.567,2.011-.81,2.872m-5.279-4.4c0-2.391,0-2.484-1.319-2.934l-1-.319c0,1,0,2.337,0,3.339v.213l1,.319h0c.923.272,1.294.1,1.322-.618M-71.8-44.4l1.852.538c-.242-1.018-.565-2.375-.807-3.393l-.136-1.361-.136,1.283c-.232.88-.541,2.053-.773,2.934M-48.72,24.289c-.171.673-.171.673-.262,13.565.018,2.408.486,3.321,2.088,4.07,1.484.641,1.881.082,2.067-1.1.06-.383.06-.383.149-13.036a4.58,4.58,0,0,0-.889-3.307c-.258-.266-2.671-2.079-3.154-.188M18.156,43.57c-.125.747-.125.747-.2,13.649.012,2.4.351,3.135,1.508,3.277,1.495.111,1.495.111,1.583-14.968-.005-1.269-.057-2.45-.624-2.965a1.361,1.361,0,0,0-2.265,1.007" transform="translate(132.471 63.467)" fill="#fd3158"/>
      </g>
    </g>
  </g>
</svg>
